<svg width="209" height="209" viewBox="0 0 209 209" fill="none" xmlns="http://www.w3.org/2000/svg">
<path d="M180.861 174.366C196.531 157.24 205.988 135.343 207.714 112.194C209.439 89.0446 203.333 65.9875 190.375 46.7271C177.418 27.4667 158.362 13.1215 136.269 5.99623C114.176 -1.12898 90.3294 -0.620421 68.5605 7.4402L68.9199 8.4108C90.4711 0.430779 114.079 -0.0726968 135.951 6.98127C157.823 14.0352 176.688 28.2371 189.516 47.3048C202.344 66.3726 208.39 89.1992 206.682 112.117C204.973 135.034 195.61 156.712 180.097 173.668L180.861 174.366Z" fill="#557BE1" stroke="#557BE1" stroke-width="2"/>
<path d="M10.0113 146.739C15.7095 159.486 23.9279 170.948 34.1718 180.435C44.4157 189.923 56.4734 197.24 69.619 201.945C82.7647 206.651 96.7265 208.648 110.664 207.816C124.602 206.985 138.227 203.342 150.72 197.106L150.258 196.18C137.89 202.353 124.401 205.96 110.603 206.783C96.8042 207.606 82.982 205.629 69.9678 200.971C56.9537 196.312 45.0166 189.069 34.8751 179.676C24.7336 170.284 16.5974 158.936 10.9562 146.317L10.0113 146.739Z" fill="#557BE1" stroke="#557BE1" stroke-width="2"/>
<path d="M14.0953 54.109C2.07784 75.6692 -1.83875 100.814 3.05219 125.008L4.06666 124.803C-0.775366 100.851 3.10205 75.9575 14.9994 54.6129L14.0953 54.109Z" fill="#557BE1" stroke="#557BE1" stroke-width="2"/>
<path d="M61 50.75H60.75V51V126V126.25H61H65.0017H65.2517V126V56.4645L91.9264 107.583L91.9966 107.717H92.1481H95.0141H95.166L95.236 107.583L121.64 56.7678V87.9565V88.2065H121.89H126H126.25V87.9565V51V50.75H126H120.214H120.063L119.993 50.8834L93.5005 101.151L67.0615 50.8836L66.9912 50.75H66.8403H61Z" fill="#2F2F2D" stroke="#2F2F2D" stroke-width="0.5"/>
<path d="M105.75 158V158.25H106H109.885H110.135V158V129.417H123.526L142.858 158.14L142.932 158.25H143.065H148H148.475L148.206 157.858L128.625 129.371C134.624 129.071 139.195 127.305 142.301 124.037L142.302 124.036C145.712 120.411 147.41 115.743 147.41 110.056C147.41 104.405 145.712 99.7744 142.302 96.186C138.878 92.5466 133.673 90.75 126.738 90.75H106H105.75V91V158ZM138.742 98.7452L138.743 98.7463C141.52 101.451 142.92 105.173 142.92 109.946C142.92 114.606 141.538 118.37 138.789 121.262C136.05 124.107 132.064 125.548 126.79 125.548H110.135V94.6746H126.738C132.016 94.6746 136.003 96.0439 138.742 98.7452Z" fill="#2F2F2D" stroke="#2F2F2D" stroke-width="0.5"/>
</svg>
